<svg xmlns="http://www.w3.org/2000/svg" data-name="Layer 1" viewBox="0 0 100 125" x="0px" y="0px"><title>Artboard 33</title><g><path d="M77,38a6,6,0,0,0-3-5.21l-21-12a6,6,0,0,0-6,0l-21,12A6,6,0,0,0,23,38V62a6,6,0,0,0,3,5.21l21,12a6,6,0,0,0,6,0l21-12A6,6,0,0,0,77,62ZM71,62,50,74,29,62V38L50,26,71,38Z"/><path d="M41.88,52.12,53,63.24,57.24,59l-9-9,9-9L53,36.76,41.88,47.88A3,3,0,0,0,41.88,52.12Z"/></g><text x="0" y="115" fill="#000000" font-size="5px" font-weight="bold" font-family="'Helvetica Neue', Helvetica, Arial-Unicode, Arial, Sans-serif">Created by Gregor Cresnar</text><text x="0" y="120" fill="#000000" font-size="5px" font-weight="bold" font-family="'Helvetica Neue', Helvetica, Arial-Unicode, Arial, Sans-serif">from the Noun Project</text></svg>